<mxfile host="Electron" agent="Mozilla/5.0 (Windows NT 10.0; Win64; x64) AppleWebKit/537.36 (KHTML, like Gecko) draw.io/24.7.17 Chrome/128.0.6613.36 Electron/32.0.1 Safari/537.36" version="24.7.17">
  <diagram name="Page-1" id="XzG_R5l5zr1ie6XoLTsY">
    <mxGraphModel dx="1574" dy="434" grid="1" gridSize="10" guides="1" tooltips="1" connect="1" arrows="1" fold="1" page="1" pageScale="1" pageWidth="850" pageHeight="1100" math="0" shadow="0">
      <root>
        <mxCell id="0" />
        <mxCell id="1" parent="0" />
        <mxCell id="K-8p31iCOTfNq5JeWVeS-1" value="ESP - WROOM - 32D" style="rounded=0;whiteSpace=wrap;html=1;points=[[0,0,0,0,0],[0,0.25,0,0,0],[0,0.5,0,0,0],[0,0.75,0,0,0],[0,1,0,0,0],[0.05,0,0,0,0],[0.05,1,0,0,0],[0.1,0,0,0,0],[0.1,1,0,0,0],[0.15,0,0,0,0],[0.15,1,0,0,0],[0.2,0,0,0,0],[0.2,1,0,0,0],[0.25,0,0,0,0],[0.25,1,0,0,0],[0.3,0,0,0,0],[0.3,1,0,0,0],[0.35,0,0,0,0],[0.35,1,0,0,0],[0.4,0,0,0,0],[0.4,1,0,0,0],[0.45,0,0,0,0],[0.45,1,0,0,0],[0.5,0,0,0,0],[0.5,1,0,0,0],[0.55,0,0,0,0],[0.55,1,0,0,0],[0.6,0,0,0,0],[0.6,1,0,0,0],[0.65,0,0,0,0],[0.65,1,0,0,0],[0.7,0,0,0,0],[0.7,1,0,0,0],[0.75,0,0,0,0],[0.75,1,0,0,0],[0.8,0,0,0,0],[0.8,1,0,0,0],[0.85,0,0,0,0],[0.85,1,0,0,0],[0.9,0,0,0,0],[0.9,1,0,0,0],[0.95,0,0,0,0],[0.95,1,0,0,0],[1,0,0,0,0],[1,0.25,0,0,0],[1,0.5,0,0,0],[1,0.75,0,0,0],[1,1,0,0,0]];" parent="1" vertex="1">
          <mxGeometry x="100" y="240" width="580" height="120" as="geometry" />
        </mxCell>
        <mxCell id="K-8p31iCOTfNq5JeWVeS-2" value="3V3" style="text;html=1;align=center;verticalAlign=middle;whiteSpace=wrap;rounded=0;" parent="1" vertex="1">
          <mxGeometry x="100" y="250" width="60" height="30" as="geometry" />
        </mxCell>
        <mxCell id="K-8p31iCOTfNq5JeWVeS-3" value="GND" style="text;html=1;align=center;verticalAlign=middle;whiteSpace=wrap;rounded=0;" parent="1" vertex="1">
          <mxGeometry x="160" y="250" width="60" height="30" as="geometry" />
        </mxCell>
        <mxCell id="K-8p31iCOTfNq5JeWVeS-4" value="IO25" style="text;html=1;align=center;verticalAlign=middle;whiteSpace=wrap;rounded=0;" parent="1" vertex="1">
          <mxGeometry x="240" y="250" width="60" height="30" as="geometry" />
        </mxCell>
        <mxCell id="K-8p31iCOTfNq5JeWVeS-5" value="IO26" style="text;html=1;align=center;verticalAlign=middle;whiteSpace=wrap;rounded=0;" parent="1" vertex="1">
          <mxGeometry x="300" y="245" width="60" height="40" as="geometry" />
        </mxCell>
        <mxCell id="K-8p31iCOTfNq5JeWVeS-7" value="IO21" style="text;html=1;align=center;verticalAlign=middle;whiteSpace=wrap;rounded=0;" parent="1" vertex="1">
          <mxGeometry x="240" y="325" width="60" height="30" as="geometry" />
        </mxCell>
        <mxCell id="K-8p31iCOTfNq5JeWVeS-8" value="IO22" style="text;html=1;align=center;verticalAlign=middle;whiteSpace=wrap;rounded=0;" parent="1" vertex="1">
          <mxGeometry x="300" y="325" width="60" height="30" as="geometry" />
        </mxCell>
        <mxCell id="K-8p31iCOTfNq5JeWVeS-10" value="IO12" style="text;html=1;align=center;verticalAlign=middle;whiteSpace=wrap;rounded=0;" parent="1" vertex="1">
          <mxGeometry x="160" y="325" width="60" height="30" as="geometry" />
        </mxCell>
        <mxCell id="K-8p31iCOTfNq5JeWVeS-12" style="edgeStyle=orthogonalEdgeStyle;rounded=0;orthogonalLoop=1;jettySize=auto;html=1;exitX=0;exitY=0;exitDx=0;exitDy=0;entryX=0.15;entryY=0;entryDx=0;entryDy=0;entryPerimeter=0;strokeWidth=4;" parent="1" source="K-8p31iCOTfNq5JeWVeS-11" target="K-8p31iCOTfNq5JeWVeS-1" edge="1">
          <mxGeometry relative="1" as="geometry">
            <mxPoint x="70" y="190" as="targetPoint" />
            <Array as="points">
              <mxPoint x="-77" y="140" />
              <mxPoint x="187" y="140" />
            </Array>
          </mxGeometry>
        </mxCell>
        <mxCell id="K-8p31iCOTfNq5JeWVeS-13" value="&lt;div&gt;GND&lt;/div&gt;" style="edgeLabel;html=1;align=center;verticalAlign=middle;resizable=0;points=[];" parent="K-8p31iCOTfNq5JeWVeS-12" vertex="1" connectable="0">
          <mxGeometry x="-0.8054" y="2" relative="1" as="geometry">
            <mxPoint as="offset" />
          </mxGeometry>
        </mxCell>
        <mxCell id="K-8p31iCOTfNq5JeWVeS-21" style="edgeStyle=orthogonalEdgeStyle;rounded=0;orthogonalLoop=1;jettySize=auto;html=1;exitX=0.5;exitY=1;exitDx=0;exitDy=0;entryX=0.4;entryY=1;entryDx=0;entryDy=0;entryPerimeter=0;strokeWidth=4;fillColor=#d80073;strokeColor=#A50040;" parent="1" source="K-8p31iCOTfNq5JeWVeS-11" target="K-8p31iCOTfNq5JeWVeS-1" edge="1">
          <mxGeometry relative="1" as="geometry">
            <mxPoint x="-45" y="460" as="targetPoint" />
            <Array as="points">
              <mxPoint x="-45" y="480" />
              <mxPoint x="332" y="480" />
            </Array>
          </mxGeometry>
        </mxCell>
        <mxCell id="K-8p31iCOTfNq5JeWVeS-24" value="WS" style="edgeLabel;html=1;align=center;verticalAlign=middle;resizable=0;points=[];" parent="K-8p31iCOTfNq5JeWVeS-21" vertex="1" connectable="0">
          <mxGeometry x="-0.6382" y="1" relative="1" as="geometry">
            <mxPoint y="-95" as="offset" />
          </mxGeometry>
        </mxCell>
        <mxCell id="K-8p31iCOTfNq5JeWVeS-22" style="edgeStyle=orthogonalEdgeStyle;rounded=0;orthogonalLoop=1;jettySize=auto;html=1;exitX=1;exitY=1;exitDx=0;exitDy=0;entryX=0.3;entryY=1;entryDx=0;entryDy=0;entryPerimeter=0;strokeWidth=4;fillColor=#e3c800;strokeColor=#B09500;" parent="1" source="K-8p31iCOTfNq5JeWVeS-11" target="K-8p31iCOTfNq5JeWVeS-1" edge="1">
          <mxGeometry relative="1" as="geometry">
            <mxPoint x="273.6" y="433.18" as="targetPoint" />
            <mxPoint x="-13.580194846605218" y="399.9998051533948" as="sourcePoint" />
            <Array as="points">
              <mxPoint x="-13" y="453" />
              <mxPoint x="274" y="453" />
            </Array>
          </mxGeometry>
        </mxCell>
        <mxCell id="K-8p31iCOTfNq5JeWVeS-25" value="SCK" style="edgeLabel;html=1;align=center;verticalAlign=middle;resizable=0;points=[];" parent="K-8p31iCOTfNq5JeWVeS-22" vertex="1" connectable="0">
          <mxGeometry x="-0.5223" relative="1" as="geometry">
            <mxPoint y="-88" as="offset" />
          </mxGeometry>
        </mxCell>
        <mxCell id="K-8p31iCOTfNq5JeWVeS-27" style="edgeStyle=orthogonalEdgeStyle;rounded=0;orthogonalLoop=1;jettySize=auto;html=1;exitX=0;exitY=1;exitDx=0;exitDy=0;strokeWidth=4;" parent="1" source="K-8p31iCOTfNq5JeWVeS-11" edge="1">
          <mxGeometry relative="1" as="geometry">
            <mxPoint x="-77" y="230" as="targetPoint" />
            <Array as="points">
              <mxPoint x="-77" y="390" />
              <mxPoint x="-150" y="390" />
              <mxPoint x="-150" y="230" />
            </Array>
          </mxGeometry>
        </mxCell>
        <mxCell id="K-8p31iCOTfNq5JeWVeS-28" value="L/R" style="edgeLabel;html=1;align=center;verticalAlign=middle;resizable=0;points=[];" parent="K-8p31iCOTfNq5JeWVeS-27" vertex="1" connectable="0">
          <mxGeometry x="-0.8433" y="-1" relative="1" as="geometry">
            <mxPoint as="offset" />
          </mxGeometry>
        </mxCell>
        <mxCell id="K-8p31iCOTfNq5JeWVeS-11" value="INMP441" style="ellipse;whiteSpace=wrap;html=1;aspect=fixed;" parent="1" vertex="1">
          <mxGeometry x="-90" y="250" width="90" height="90" as="geometry" />
        </mxCell>
        <mxCell id="K-8p31iCOTfNq5JeWVeS-15" style="edgeStyle=orthogonalEdgeStyle;rounded=0;orthogonalLoop=1;jettySize=auto;html=1;exitX=0.5;exitY=0;exitDx=0;exitDy=0;entryX=0.05;entryY=0;entryDx=0;entryDy=0;entryPerimeter=0;fillColor=#a20025;strokeColor=#6F0000;strokeWidth=4;" parent="1" source="K-8p31iCOTfNq5JeWVeS-11" target="K-8p31iCOTfNq5JeWVeS-1" edge="1">
          <mxGeometry relative="1" as="geometry">
            <Array as="points">
              <mxPoint x="-45" y="180" />
              <mxPoint x="129" y="180" />
            </Array>
          </mxGeometry>
        </mxCell>
        <mxCell id="K-8p31iCOTfNq5JeWVeS-16" value="VCC" style="edgeLabel;html=1;align=center;verticalAlign=middle;resizable=0;points=[];" parent="K-8p31iCOTfNq5JeWVeS-15" vertex="1" connectable="0">
          <mxGeometry x="-0.7947" y="1" relative="1" as="geometry">
            <mxPoint as="offset" />
          </mxGeometry>
        </mxCell>
        <mxCell id="K-8p31iCOTfNq5JeWVeS-17" style="edgeStyle=orthogonalEdgeStyle;rounded=0;orthogonalLoop=1;jettySize=auto;html=1;exitX=1;exitY=0;exitDx=0;exitDy=0;entryX=0.4;entryY=0;entryDx=0;entryDy=0;entryPerimeter=0;strokeWidth=4;fillColor=#e3c800;strokeColor=#B09500;" parent="1" source="K-8p31iCOTfNq5JeWVeS-11" target="K-8p31iCOTfNq5JeWVeS-1" edge="1">
          <mxGeometry relative="1" as="geometry">
            <Array as="points">
              <mxPoint x="-13" y="120" />
              <mxPoint x="332" y="120" />
            </Array>
          </mxGeometry>
        </mxCell>
        <mxCell id="K-8p31iCOTfNq5JeWVeS-19" value="SD" style="edgeLabel;html=1;align=center;verticalAlign=middle;resizable=0;points=[];" parent="K-8p31iCOTfNq5JeWVeS-17" vertex="1" connectable="0">
          <mxGeometry x="-0.8662" relative="1" as="geometry">
            <mxPoint as="offset" />
          </mxGeometry>
        </mxCell>
        <mxCell id="K-8p31iCOTfNq5JeWVeS-43" style="edgeStyle=orthogonalEdgeStyle;rounded=0;orthogonalLoop=1;jettySize=auto;html=1;exitX=1;exitY=0.25;exitDx=0;exitDy=0;entryX=0;entryY=0;entryDx=0;entryDy=0;strokeWidth=4;fillColor=#e51400;strokeColor=#B20000;" parent="1" source="K-8p31iCOTfNq5JeWVeS-29" target="K-8p31iCOTfNq5JeWVeS-40" edge="1">
          <mxGeometry relative="1" as="geometry" />
        </mxCell>
        <mxCell id="K-8p31iCOTfNq5JeWVeS-44" style="edgeStyle=orthogonalEdgeStyle;rounded=0;orthogonalLoop=1;jettySize=auto;html=1;exitX=1;exitY=0.75;exitDx=0;exitDy=0;entryX=0;entryY=1;entryDx=0;entryDy=0;strokeWidth=4;" parent="1" source="K-8p31iCOTfNq5JeWVeS-29" target="K-8p31iCOTfNq5JeWVeS-40" edge="1">
          <mxGeometry relative="1" as="geometry" />
        </mxCell>
        <mxCell id="K-8p31iCOTfNq5JeWVeS-45" style="edgeStyle=orthogonalEdgeStyle;rounded=0;orthogonalLoop=1;jettySize=auto;html=1;exitX=0;exitY=0.25;exitDx=0;exitDy=0;strokeWidth=4;fillColor=#a20025;strokeColor=#6F0000;" parent="1" source="K-8p31iCOTfNq5JeWVeS-29" edge="1">
          <mxGeometry relative="1" as="geometry">
            <mxPoint x="130" y="180" as="targetPoint" />
          </mxGeometry>
        </mxCell>
        <mxCell id="K-8p31iCOTfNq5JeWVeS-47" style="edgeStyle=orthogonalEdgeStyle;rounded=0;orthogonalLoop=1;jettySize=auto;html=1;exitX=0;exitY=0.75;exitDx=0;exitDy=0;strokeWidth=4;" parent="1" source="K-8p31iCOTfNq5JeWVeS-29" edge="1">
          <mxGeometry relative="1" as="geometry">
            <mxPoint x="180" y="140" as="targetPoint" />
          </mxGeometry>
        </mxCell>
        <mxCell id="K-8p31iCOTfNq5JeWVeS-29" value="LM386" style="rounded=0;whiteSpace=wrap;html=1;" parent="1" vertex="1">
          <mxGeometry x="440" y="40" width="210" height="120" as="geometry" />
        </mxCell>
        <mxCell id="K-8p31iCOTfNq5JeWVeS-30" value="VCC" style="text;html=1;align=center;verticalAlign=middle;whiteSpace=wrap;rounded=0;" parent="1" vertex="1">
          <mxGeometry x="450" y="50" width="52.5" height="30" as="geometry" />
        </mxCell>
        <mxCell id="K-8p31iCOTfNq5JeWVeS-31" value="IN" style="text;html=1;align=center;verticalAlign=middle;whiteSpace=wrap;rounded=0;" parent="1" vertex="1">
          <mxGeometry x="445" y="80" width="55" height="30" as="geometry" />
        </mxCell>
        <mxCell id="K-8p31iCOTfNq5JeWVeS-32" value="GND" style="text;html=1;align=center;verticalAlign=middle;whiteSpace=wrap;rounded=0;" parent="1" vertex="1">
          <mxGeometry x="450" y="110" width="50" height="30" as="geometry" />
        </mxCell>
        <mxCell id="K-8p31iCOTfNq5JeWVeS-33" value="OUT" style="text;html=1;align=center;verticalAlign=middle;whiteSpace=wrap;rounded=0;" parent="1" vertex="1">
          <mxGeometry x="580" y="60" width="60" height="30" as="geometry" />
        </mxCell>
        <mxCell id="K-8p31iCOTfNq5JeWVeS-35" value="GND" style="text;html=1;align=center;verticalAlign=middle;whiteSpace=wrap;rounded=0;" parent="1" vertex="1">
          <mxGeometry x="580" y="100" width="60" height="30" as="geometry" />
        </mxCell>
        <mxCell id="K-8p31iCOTfNq5JeWVeS-37" value="" style="ellipse;whiteSpace=wrap;html=1;aspect=fixed;" parent="1" vertex="1">
          <mxGeometry x="500" y="120" width="30" height="30" as="geometry" />
        </mxCell>
        <mxCell id="K-8p31iCOTfNq5JeWVeS-38" value="" style="rounded=0;whiteSpace=wrap;html=1;" parent="1" vertex="1">
          <mxGeometry x="510" y="120" width="10" height="30" as="geometry" />
        </mxCell>
        <mxCell id="K-8p31iCOTfNq5JeWVeS-39" value="" style="rounded=0;whiteSpace=wrap;html=1;" parent="1" vertex="1">
          <mxGeometry x="525" y="130" width="5" height="10" as="geometry" />
        </mxCell>
        <mxCell id="K-8p31iCOTfNq5JeWVeS-40" value="Speaker&lt;div&gt;8ohm&lt;/div&gt;" style="ellipse;whiteSpace=wrap;html=1;" parent="1" vertex="1">
          <mxGeometry x="740" y="55" width="120" height="95" as="geometry" />
        </mxCell>
        <mxCell id="K-8p31iCOTfNq5JeWVeS-41" value="+" style="text;html=1;align=center;verticalAlign=middle;whiteSpace=wrap;rounded=0;" parent="1" vertex="1">
          <mxGeometry x="740" y="60" width="60" height="30" as="geometry" />
        </mxCell>
        <mxCell id="K-8p31iCOTfNq5JeWVeS-42" value="-" style="text;html=1;align=center;verticalAlign=middle;whiteSpace=wrap;rounded=0;" parent="1" vertex="1">
          <mxGeometry x="740" y="120" width="60" height="30" as="geometry" />
        </mxCell>
        <mxCell id="K-8p31iCOTfNq5JeWVeS-46" style="edgeStyle=orthogonalEdgeStyle;rounded=0;orthogonalLoop=1;jettySize=auto;html=1;exitX=0;exitY=0.5;exitDx=0;exitDy=0;entryX=0.3;entryY=0;entryDx=0;entryDy=0;entryPerimeter=0;strokeWidth=4;fillColor=#76608a;strokeColor=#432D57;" parent="1" source="K-8p31iCOTfNq5JeWVeS-29" target="K-8p31iCOTfNq5JeWVeS-1" edge="1">
          <mxGeometry relative="1" as="geometry" />
        </mxCell>
        <mxCell id="K-8p31iCOTfNq5JeWVeS-51" value="IO14" style="text;html=1;align=center;verticalAlign=middle;whiteSpace=wrap;rounded=0;" parent="1" vertex="1">
          <mxGeometry x="110" y="325" width="50" height="30" as="geometry" />
        </mxCell>
        <mxCell id="aeQULsOXabw-aqqyEhUT-2" style="edgeStyle=orthogonalEdgeStyle;rounded=0;orthogonalLoop=1;jettySize=auto;html=1;exitX=0;exitY=0.5;exitDx=0;exitDy=0;entryX=1;entryY=0.5;entryDx=0;entryDy=0;strokeWidth=4;" edge="1" parent="1" source="K-8p31iCOTfNq5JeWVeS-52" target="aeQULsOXabw-aqqyEhUT-1">
          <mxGeometry relative="1" as="geometry" />
        </mxCell>
        <mxCell id="K-8p31iCOTfNq5JeWVeS-52" value="Led" style="rounded=0;whiteSpace=wrap;html=1;" parent="1" vertex="1">
          <mxGeometry x="-30" y="510" width="110" height="50" as="geometry" />
        </mxCell>
        <mxCell id="K-8p31iCOTfNq5JeWVeS-53" value="+" style="text;html=1;align=center;verticalAlign=middle;whiteSpace=wrap;rounded=0;" parent="1" vertex="1">
          <mxGeometry x="50" y="520" width="20" height="30" as="geometry" />
        </mxCell>
        <mxCell id="K-8p31iCOTfNq5JeWVeS-54" value="-" style="text;html=1;align=center;verticalAlign=middle;whiteSpace=wrap;rounded=0;" parent="1" vertex="1">
          <mxGeometry x="-20" y="520" width="20" height="30" as="geometry" />
        </mxCell>
        <mxCell id="K-8p31iCOTfNq5JeWVeS-56" style="edgeStyle=orthogonalEdgeStyle;rounded=0;orthogonalLoop=1;jettySize=auto;html=1;exitX=1;exitY=0.5;exitDx=0;exitDy=0;entryX=0.05;entryY=1;entryDx=0;entryDy=0;entryPerimeter=0;strokeWidth=4;" parent="1" source="K-8p31iCOTfNq5JeWVeS-52" target="K-8p31iCOTfNq5JeWVeS-1" edge="1">
          <mxGeometry relative="1" as="geometry" />
        </mxCell>
        <mxCell id="K-8p31iCOTfNq5JeWVeS-59" style="edgeStyle=orthogonalEdgeStyle;rounded=0;orthogonalLoop=1;jettySize=auto;html=1;exitX=0;exitY=0.5;exitDx=0;exitDy=0;strokeWidth=4;" parent="1" source="K-8p31iCOTfNq5JeWVeS-66" edge="1">
          <mxGeometry relative="1" as="geometry">
            <mxPoint x="-150" y="390" as="targetPoint" />
            <mxPoint x="-35" y="630" as="sourcePoint" />
            <Array as="points">
              <mxPoint x="-240" y="625" />
              <mxPoint x="-240" y="390" />
            </Array>
          </mxGeometry>
        </mxCell>
        <mxCell id="K-8p31iCOTfNq5JeWVeS-58" style="edgeStyle=orthogonalEdgeStyle;rounded=0;orthogonalLoop=1;jettySize=auto;html=1;exitX=1;exitY=0.5;exitDx=0;exitDy=0;entryX=0.15;entryY=1;entryDx=0;entryDy=0;entryPerimeter=0;strokeWidth=4;" parent="1" source="K-8p31iCOTfNq5JeWVeS-66" target="K-8p31iCOTfNq5JeWVeS-1" edge="1">
          <mxGeometry relative="1" as="geometry">
            <mxPoint x="85" y="630" as="sourcePoint" />
            <Array as="points">
              <mxPoint x="187" y="625" />
            </Array>
          </mxGeometry>
        </mxCell>
        <mxCell id="K-8p31iCOTfNq5JeWVeS-66" value="Button" style="rounded=0;whiteSpace=wrap;html=1;" parent="1" vertex="1">
          <mxGeometry x="-30" y="600" width="110" height="50" as="geometry" />
        </mxCell>
        <mxCell id="K-8p31iCOTfNq5JeWVeS-67" value="+" style="text;html=1;align=center;verticalAlign=middle;whiteSpace=wrap;rounded=0;" parent="1" vertex="1">
          <mxGeometry x="50" y="610" width="20" height="30" as="geometry" />
        </mxCell>
        <mxCell id="K-8p31iCOTfNq5JeWVeS-68" value="-" style="text;html=1;align=center;verticalAlign=middle;whiteSpace=wrap;rounded=0;" parent="1" vertex="1">
          <mxGeometry x="-20" y="610" width="20" height="30" as="geometry" />
        </mxCell>
        <mxCell id="aeQULsOXabw-aqqyEhUT-3" style="edgeStyle=orthogonalEdgeStyle;rounded=0;orthogonalLoop=1;jettySize=auto;html=1;exitX=0.5;exitY=0;exitDx=0;exitDy=0;strokeWidth=4;" edge="1" parent="1" source="aeQULsOXabw-aqqyEhUT-1">
          <mxGeometry relative="1" as="geometry">
            <mxPoint x="-114.68965517241372" y="390" as="targetPoint" />
          </mxGeometry>
        </mxCell>
        <mxCell id="aeQULsOXabw-aqqyEhUT-1" value="Resistor&lt;div&gt;&amp;nbsp;100ohm&lt;/div&gt;" style="rounded=0;whiteSpace=wrap;html=1;" vertex="1" parent="1">
          <mxGeometry x="-150" y="505" width="70" height="60" as="geometry" />
        </mxCell>
      </root>
    </mxGraphModel>
  </diagram>
</mxfile>
